<svg width="156" height="56" viewBox="0 0 156 56" fill="none" xmlns="http://www.w3.org/2000/svg">
<path d="M33.1539 4.6833C32.8925 4.68252 32.6312 4.68173 32.362 4.68092C31.8118 4.67972 31.2616 4.67916 30.7115 4.6792C29.8803 4.67869 29.0493 4.67439 28.2181 4.6699C21.1535 4.65147 21.1535 4.65147 18.0736 5.81731C17.9075 5.87834 17.7414 5.93938 17.5703 6.00226C11.8496 8.19234 8.09652 12.2918 5.44611 17.7146C3.64372 21.9638 3.64705 27.4036 5.19381 31.6951C5.29474 31.9838 5.29474 31.9838 5.39771 32.2784C8.03808 39.7684 12.583 45.6153 19.1678 50.061C19.3173 50.1619 19.4667 50.2628 19.6206 50.3667C20.3275 50.8296 20.9312 51.1579 21.7556 51.3327C21.8245 51.0384 21.8935 50.7441 21.9645 50.4408C22.5099 48.1948 23.079 46.1897 24.3582 44.2348C24.4445 44.0838 24.5308 43.9328 24.6197 43.7773C25.9021 41.6987 28.6614 39.9861 31.0023 39.374C32.886 38.9589 34.7847 38.8775 36.7065 38.7847C40.9721 38.5172 44.6516 36.5335 47.6251 33.4955C51.0225 29.616 52.2913 24.9998 52.0814 19.9331C51.7296 15.3306 49.0306 11.2559 45.6177 8.30342C41.8549 5.4929 37.7652 4.68824 33.1539 4.6833ZM43.627 14.1989C45.9701 17.1294 46.6737 20.202 46.3617 23.8874C45.9876 25.7835 45.18 27.3435 43.9957 28.856C43.8515 29.0417 43.7072 29.2274 43.5586 29.4188C41.7376 31.6163 39.0327 33.0122 36.188 33.3513C35.5695 33.3704 34.9513 33.3768 34.3325 33.3838C31.5422 33.4308 29.2588 33.8504 26.7241 35.0075C26.4875 35.1097 26.2508 35.2118 26.007 35.3171C23.1478 36.7015 20.2733 39.4611 18.9164 42.342C15.0636 40.6745 12.6302 35.392 11.166 31.7185C9.66134 27.8597 9.19487 23.5197 10.8721 19.6287C12.6454 15.7516 15.374 13.2085 19.2261 11.4162C21.5333 10.6104 23.7619 10.2922 26.1973 10.2988C26.4734 10.2975 26.7495 10.2963 27.0339 10.295C27.6133 10.2935 28.1926 10.2938 28.772 10.2958C29.6483 10.2979 30.5243 10.291 31.4006 10.2835C36.0726 10.2694 40.2332 10.5773 43.627 14.1989Z"/>
<circle cx="19.6683" cy="22.5834" r="2.89" />
<circle cx="28.9164" cy="22.5834" r="2.89" />
<circle cx="38.1644" cy="22.5834" r="2.89" />
<path d="M64.8515 37.5V18.4939H71.558C72.8612 18.4939 74.0106 18.7564 75.0062 19.2813C76.0018 19.8063 76.7801 20.5394 77.3412 21.4806C77.9024 22.4038 78.1829 23.4808 78.1829 24.7116C78.1829 25.9063 77.9205 26.9743 77.3955 27.9155C76.8706 28.8568 76.1375 29.5989 75.1963 30.1419C74.2731 30.6669 73.1961 30.9293 71.9652 30.9293H68.0011V37.5H64.8515ZM68.0011 28.0241H71.9109C72.816 28.0241 73.5581 27.7164 74.1374 27.101C74.7166 26.4855 75.0062 25.6891 75.0062 24.7116C75.0062 23.7161 74.6804 22.9106 74.0287 22.2952C73.3771 21.6797 72.5354 21.372 71.5037 21.372H68.0011V28.0241ZM85.6492 37.8258C84.3278 37.8258 83.1512 37.5272 82.1195 36.9298C81.1058 36.3144 80.3003 35.4727 79.703 34.4047C79.1238 33.3368 78.8341 32.1059 78.8341 30.7121C78.8341 29.3183 79.1328 28.0875 79.7301 27.0195C80.3275 25.9516 81.142 25.1189 82.1738 24.5216C83.2236 23.9061 84.4183 23.5984 85.7578 23.5984C86.9705 23.5984 88.0657 23.9152 89.0431 24.5487C90.0206 25.1642 90.7899 26.0602 91.351 27.2367C91.9302 28.4133 92.2198 29.8161 92.2198 31.4452H81.5493L81.9566 31.0651C81.9566 31.8977 82.1376 32.6218 82.4996 33.2372C82.8616 33.8345 83.3413 34.2961 83.9386 34.6219C84.536 34.9478 85.1966 35.1107 85.9207 35.1107C86.7533 35.1107 87.4412 34.9297 87.9842 34.5676C88.5272 34.1875 88.9526 33.6988 89.2603 33.1015L91.9483 34.2418C91.5682 34.9659 91.0795 35.5994 90.4821 36.1424C89.9029 36.6855 89.206 37.1018 88.3915 37.3914C87.595 37.681 86.6809 37.8258 85.6492 37.8258ZM82.1466 29.4903L81.7122 29.1102H89.3689L88.9617 29.4903C88.9617 28.7482 88.7987 28.1418 88.4729 27.6712C88.1471 27.1824 87.7308 26.8204 87.224 26.5851C86.7352 26.3317 86.2194 26.205 85.6763 26.205C85.1333 26.205 84.5903 26.3317 84.0472 26.5851C83.5042 26.8204 83.0517 27.1824 82.6897 27.6712C82.3276 28.1418 82.1466 28.7482 82.1466 29.4903ZM94.1417 42.9303V23.9242H96.9926L97.1826 26.4222V42.9303H94.1417ZM101.473 37.8258C100.332 37.8258 99.3457 37.5362 98.5131 36.957C97.6985 36.3596 97.074 35.527 96.6396 34.459C96.2052 33.3911 95.988 32.1421 95.988 30.7121C95.988 29.264 96.2052 28.0151 96.6396 26.9652C97.074 25.8973 97.6985 25.0737 98.5131 24.4944C99.3457 23.8971 100.332 23.5984 101.473 23.5984C102.703 23.5984 103.771 23.8971 104.676 24.4944C105.6 25.0737 106.315 25.8973 106.821 26.9652C107.346 28.0151 107.609 29.264 107.609 30.7121C107.609 32.1421 107.346 33.3911 106.821 34.459C106.315 35.527 105.6 36.3596 104.676 36.957C103.771 37.5362 102.703 37.8258 101.473 37.8258ZM100.712 35.0564C101.436 35.0564 102.079 34.8754 102.64 34.5133C103.201 34.1332 103.645 33.6173 103.971 32.9657C104.314 32.3141 104.486 31.5629 104.486 30.7121C104.486 29.8614 104.323 29.1102 103.998 28.4585C103.69 27.8069 103.256 27.3001 102.694 26.9381C102.133 26.576 101.482 26.395 100.739 26.395C100.052 26.395 99.4362 26.576 98.8932 26.9381C98.3501 27.3001 97.9248 27.8069 97.6171 28.4585C97.3274 29.1102 97.1826 29.8614 97.1826 30.7121C97.1826 31.5629 97.3274 32.3141 97.6171 32.9657C97.9248 33.6173 98.3411 34.1332 98.866 34.5133C99.4091 34.8754 100.024 35.0564 100.712 35.0564ZM114.171 37.5V21.372H108.333V18.4939H123.158V21.372H117.32V37.5H114.171ZM131.216 37.5L131.08 34.9478V30.5221C131.08 29.5989 130.981 28.8296 130.782 28.2142C130.601 27.5806 130.293 27.101 129.859 26.7752C129.442 26.4312 128.881 26.2593 128.175 26.2593C127.524 26.2593 126.953 26.395 126.465 26.6665C125.976 26.9381 125.56 27.3634 125.216 27.9427L122.555 26.9652C122.844 26.3679 123.225 25.8158 123.695 25.309C124.184 24.784 124.79 24.3677 125.514 24.06C126.257 23.7523 127.143 23.5984 128.175 23.5984C129.497 23.5984 130.601 23.8609 131.488 24.3858C132.375 24.8926 133.026 25.6257 133.443 26.5851C133.877 27.5444 134.094 28.7029 134.094 30.0605L134.013 37.5H131.216ZM127.306 37.8258C125.677 37.8258 124.41 37.4638 123.505 36.7398C122.618 36.0157 122.175 34.993 122.175 33.6716C122.175 32.2598 122.645 31.1827 123.587 30.4406C124.546 29.6985 125.876 29.3274 127.578 29.3274H131.216V31.6624H128.555C127.343 31.6624 126.492 31.8344 126.003 32.1783C125.514 32.5041 125.27 32.9747 125.27 33.5902C125.27 34.1151 125.478 34.5314 125.895 34.8392C126.329 35.1288 126.926 35.2736 127.687 35.2736C128.374 35.2736 128.972 35.1197 129.479 34.812C129.985 34.5043 130.375 34.097 130.646 33.5902C130.936 33.0834 131.08 32.5132 131.08 31.8796H131.976C131.976 33.7259 131.605 35.1831 130.863 36.251C130.121 37.3009 128.935 37.8258 127.306 37.8258ZM136.631 37.5V18.4939H139.672V37.5H136.631ZM145.409 33.6988L143.563 31.6081L150.623 23.9242H154.288L145.409 33.6988ZM142.504 37.5V18.4939H145.545V37.5H142.504ZM151.138 37.5L146.36 30.4678L148.342 28.3499L154.75 37.5H151.138Z" />
</svg>
